<svg xmlns="http://www.w3.org/2000/svg" width="512" height="512" viewBox="0 0 512 512" role="img" aria-label="CoroSim anatomical heart logo">
<defs>
<pattern id="hatchInk" width="6" height="6" patternUnits="userSpaceOnUse" patternTransform="rotate(-35)"><line x1="0" y1="0" x2="0" y2="6" stroke="#2b4480" stroke-width="1.1" opacity="0.75"/></pattern>
<pattern id="hatchCream" width="5" height="5" patternUnits="userSpaceOnUse" patternTransform="rotate(-40)"><line x1="0" y1="0" x2="0" y2="5" stroke="#f3e9d6" stroke-width="1.3"/></pattern>
<linearGradient id="shade" x1="0" y1="0" x2="1" y2="1"><stop offset="0" stop-color="#fff"/><stop offset="0.55" stop-color="#fff" stop-opacity="0.35"/><stop offset="1" stop-color="#000"/></linearGradient>
<mask id="highlight"><path d="M192 246 C150 272 142 346 190 402 C222 440 276 466 326 456 C362 446 386 406 392 350 C398 302 390 266 370 248 C352 232 326 232 306 240 C288 228 256 222 232 228 C212 232 200 240 192 246 Z" fill="url(#shade)"/></mask>
<clipPath id="bodyClip"><path d="M192 246 C150 272 142 346 190 402 C222 440 276 466 326 456 C362 446 386 406 392 350 C398 302 390 266 370 248 C352 232 326 232 306 240 C288 228 256 222 232 228 C212 232 200 240 192 246 Z"/></clipPath>
</defs>
<rect width="512" height="512" fill="#f3e9d6"/>
<g fill="none" stroke="#2b4480" stroke-linecap="round"><path d="M168.0 202.0 Q142.8 204.7 118.5 195.0" stroke-width="11.0"/><path d="M118.5 195.0 Q108.9 184.3 98.6 171.7" stroke-width="7.3"/><path d="M98.6 171.7 Q92.8 161.5 93.9 151.0" stroke-width="4.8"/><path d="M93.9 151.0 Q95.2 145.1 97.2 138.4" stroke-width="3.2"/><path d="M97.2 138.4 Q100.3 136.3 103.0 132.4" stroke-width="2.1"/><path d="M97.2 138.4 Q97.4 134.6 95.5 130.6" stroke-width="2.1"/><path d="M93.9 151.0 Q86.3 146.2 80.8 142.1" stroke-width="3.2"/><path d="M80.8 142.1 Q79.7 137.4 78.2 131.9" stroke-width="2.1"/><path d="M80.8 142.1 Q75.4 141.7 70.1 142.0" stroke-width="2.1"/><path d="M98.6 171.7 Q89.3 168.7 79.7 166.1" stroke-width="4.8"/><path d="M79.7 166.1 Q75.5 158.5 73.2 153.2" stroke-width="3.2"/><path d="M73.2 153.2 Q74.3 148.3 73.6 143.5" stroke-width="2.1"/><path d="M73.2 153.2 Q68.7 149.3 64.0 148.0" stroke-width="2.1"/><path d="M79.7 166.1 Q73.2 166.8 66.6 170.7" stroke-width="3.2"/><path d="M66.6 170.7 Q62.7 169.7 58.3 166.1" stroke-width="2.1"/><path d="M66.6 170.7 Q63.5 174.7 59.3 178.1" stroke-width="2.1"/><path d="M88.2 168.6 Q85.0 172.4 81.8 174.8" stroke-width="2.4"/><path d="M107.6 182.2 Q108.1 175.4 109.2 168.5" stroke-width="3.6"/><path d="M109.2 168.5 Q114.1 164.8 117.5 162.4" stroke-width="2.4"/><path d="M109.2 168.5 Q105.9 164.0 105.1 158.6" stroke-width="2.4"/><path d="M118.5 195.0 Q104.8 209.4 88.0 212.9" stroke-width="7.3"/><path d="M88.0 212.9 Q76.4 207.9 64.6 210.6" stroke-width="4.8"/><path d="M64.6 210.6 Q59.7 203.8 53.8 198.4" stroke-width="3.2"/><path d="M53.8 198.4 Q53.4 192.0 50.7 186.4" stroke-width="2.1"/><path d="M53.8 198.4 Q48.8 199.3 43.8 197.0" stroke-width="2.1"/><path d="M64.6 210.6 Q60.3 217.7 52.8 220.6" stroke-width="3.2"/><path d="M52.8 220.6 Q48.1 223.1 43.3 222.4" stroke-width="2.1"/><path d="M52.8 220.6 Q53.0 225.7 52.2 230.7" stroke-width="2.1"/><path d="M88.0 212.9 Q87.1 225.5 79.4 235.6" stroke-width="4.8"/><path d="M79.4 235.6 Q71.9 241.6 66.5 244.6" stroke-width="3.2"/><path d="M66.5 244.6 Q60.5 247.0 54.5 246.3" stroke-width="2.1"/><path d="M66.5 244.6 Q63.2 250.1 62.8 256.2" stroke-width="2.1"/><path d="M79.4 235.6 Q83.0 244.4 87.0 251.8" stroke-width="3.2"/><path d="M87.0 251.8 Q84.9 257.1 85.3 263.1" stroke-width="2.1"/><path d="M87.0 251.8 Q93.2 255.6 97.9 259.2" stroke-width="2.1"/><path d="M83.3 225.4 Q78.2 226.1 72.6 227.7" stroke-width="2.4"/><path d="M140.8 198.2 Q131.7 189.1 127.9 179.7" stroke-width="5.5"/><path d="M127.9 179.7 Q130.4 172.0 127.6 164.3" stroke-width="3.6"/><path d="M127.6 164.3 Q129.5 159.2 132.6 153.6" stroke-width="2.4"/><path d="M127.6 164.3 Q123.0 159.0 120.2 155.9" stroke-width="2.4"/><path d="M127.9 179.7 Q119.4 178.9 110.7 177.6" stroke-width="3.6"/><path d="M110.7 177.6 Q106.3 172.3 103.9 169.3" stroke-width="2.4"/><path d="M110.7 177.6 Q105.1 180.5 100.1 184.1" stroke-width="2.4"/><path d="M133.7 188.0 Q128.9 186.4 123.7 186.4" stroke-width="2.8"/><path d="M372.0 222.0 Q395.2 227.9 419.7 217.0" stroke-width="10.0"/><path d="M419.7 217.0 Q438.8 221.2 452.8 232.2" stroke-width="6.6"/><path d="M452.8 232.2 Q460.4 244.3 465.1 256.0" stroke-width="4.4"/><path d="M465.1 256.0 Q461.1 263.0 459.8 271.5" stroke-width="2.9"/><path d="M459.8 271.5 Q454.4 273.2 449.1 277.5" stroke-width="1.9"/><path d="M459.8 271.5 Q461.1 277.0 465.1 281.5" stroke-width="1.9"/><path d="M465.1 256.0 Q472.9 256.1 481.2 260.7" stroke-width="2.9"/><path d="M481.2 260.7 Q485.4 264.8 489.9 269.1" stroke-width="1.9"/><path d="M481.2 260.7 Q484.7 256.5 490.1 255.0" stroke-width="1.9"/><path d="M452.8 232.2 Q465.4 228.2 474.7 222.5" stroke-width="4.4"/><path d="M474.7 222.5 Q482.4 225.1 490.1 224.4" stroke-width="2.9"/><path d="M490.1 224.4 Q493.6 228.9 497.2 231.5" stroke-width="1.9"/><path d="M490.1 224.4 Q494.7 222.3 499.3 220.7" stroke-width="1.9"/><path d="M474.7 222.5 Q477.6 215.0 483.3 208.8" stroke-width="2.9"/><path d="M483.3 208.8 Q489.5 206.5 493.8 203.0" stroke-width="1.9"/><path d="M483.3 208.8 Q482.9 203.8 480.6 198.1" stroke-width="1.9"/><path d="M437.9 225.3 Q437.8 233.5 436.6 241.6" stroke-width="3.3"/><path d="M436.6 241.6 Q433.8 245.9 430.3 249.5" stroke-width="2.2"/><path d="M436.6 241.6 Q440.6 247.3 443.3 250.8" stroke-width="2.2"/><path d="M419.7 217.0 Q427.1 201.0 442.9 188.9" stroke-width="6.6"/><path d="M442.9 188.9 Q454.5 191.0 465.9 187.8" stroke-width="4.4"/><path d="M465.9 187.8 Q470.0 193.1 477.9 199.3" stroke-width="2.9"/><path d="M477.9 199.3 Q478.6 204.9 479.4 210.7" stroke-width="1.9"/><path d="M477.9 199.3 Q484.2 196.8 490.5 198.8" stroke-width="1.9"/><path d="M465.9 187.8 Q470.9 181.7 477.4 178.7" stroke-width="2.9"/><path d="M477.4 178.7 Q483.0 179.2 488.7 176.3" stroke-width="1.9"/><path d="M477.4 178.7 Q481.1 173.0 481.1 168.0" stroke-width="1.9"/><path d="M442.9 188.9 Q442.9 177.4 443.8 165.8" stroke-width="4.4"/><path d="M443.8 165.8 Q451.2 157.0 453.6 151.6" stroke-width="2.9"/><path d="M453.6 151.6 Q459.8 148.8 464.0 145.8" stroke-width="1.9"/><path d="M453.6 151.6 Q454.3 145.4 453.7 139.2" stroke-width="1.9"/><path d="M443.8 165.8 Q437.9 161.2 434.2 154.5" stroke-width="2.9"/><path d="M434.2 154.5 Q433.4 149.3 435.5 143.7" stroke-width="1.9"/><path d="M434.2 154.5 Q428.9 154.8 423.6 154.5" stroke-width="1.9"/><path d="M443.4 176.2 Q448.3 172.2 452.6 171.3" stroke-width="2.2"/><path d="M432.5 201.5 Q439.3 204.4 448.0 206.7" stroke-width="3.3"/><path d="M448.0 206.7 Q452.7 211.2 456.1 216.5" stroke-width="2.2"/><path d="M448.0 206.7 Q452.9 204.8 458.6 202.9" stroke-width="2.2"/><path d="M398.3 219.2 Q405.3 227.0 411.1 236.6" stroke-width="5.0"/><path d="M411.1 236.6 Q408.3 243.1 409.9 249.9" stroke-width="3.3"/><path d="M409.9 249.9 Q406.2 253.8 404.2 258.2" stroke-width="2.2"/><path d="M409.9 249.9 Q412.0 252.9 414.7 257.1" stroke-width="2.2"/><path d="M411.1 236.6 Q417.8 238.7 425.1 240.7" stroke-width="3.3"/><path d="M425.1 240.7 Q427.3 246.0 429.9 250.3" stroke-width="2.2"/><path d="M425.1 240.7 Q430.7 239.8 435.4 237.9" stroke-width="2.2"/></g>
<g fill="none" stroke-linecap="butt">
<path d="M232 194 C290 186 340 206 374 222" stroke="#2b4480" stroke-width="25"/><path d="M232 194 C290 186 340 206 374 222" stroke="#f3e9d6" stroke-width="20"/><path d="M232 194 C290 186 340 206 374 222" stroke="#2b4480" stroke-width="20" opacity="0.38"/><path d="M232 194 C290 186 340 206 374 222" stroke="#f3e9d6" stroke-width="13"/><path d="M232 194 C290 186 340 206 374 222" stroke="url(#hatchInk)" stroke-width="13" opacity="0.5"/>
<path d="M232 194 C212 196 190 200 166 202" stroke="#2b4480" stroke-width="25"/><path d="M232 194 C212 196 190 200 166 202" stroke="#f3e9d6" stroke-width="20"/><path d="M232 194 C212 196 190 200 166 202" stroke="#2b4480" stroke-width="20" opacity="0.38"/><path d="M232 194 C212 196 190 200 166 202" stroke="#f3e9d6" stroke-width="13"/><path d="M232 194 C212 196 190 200 166 202" stroke="url(#hatchInk)" stroke-width="13" opacity="0.5"/>
<path d="M204 246 L204 150" stroke="#2b4480" stroke-width="34" stroke-linecap="round"/>
<path d="M204 246 L204 150" stroke="url(#hatchCream)" stroke-width="22" stroke-linecap="round"/>
<path d="M300 246 C298 196 318 146 354 142 C384 140 398 172 388 226" stroke="#2b4480" stroke-width="37"/><path d="M300 246 C298 196 318 146 354 142 C384 140 398 172 388 226" stroke="#f3e9d6" stroke-width="32"/><path d="M300 246 C298 196 318 146 354 142 C384 140 398 172 388 226" stroke="#2b4480" stroke-width="32" opacity="0.38"/><path d="M300 246 C298 196 318 146 354 142 C384 140 398 172 388 226" stroke="#f3e9d6" stroke-width="25"/><path d="M300 246 C298 196 318 146 354 142 C384 140 398 172 388 226" stroke="url(#hatchInk)" stroke-width="25" opacity="0.5"/>
<path d="M338 150 L330 106" stroke="#2b4480" stroke-width="17"/><path d="M338 150 L330 106" stroke="#f3e9d6" stroke-width="12"/><path d="M338 150 L330 106" stroke="#2b4480" stroke-width="12" opacity="0.38"/><path d="M338 150 L330 106" stroke="#f3e9d6" stroke-width="5"/><path d="M338 150 L330 106" stroke="url(#hatchInk)" stroke-width="5" opacity="0.5"/>
<path d="M356 150 L354 106" stroke="#2b4480" stroke-width="17"/><path d="M356 150 L354 106" stroke="#f3e9d6" stroke-width="12"/><path d="M356 150 L354 106" stroke="#2b4480" stroke-width="12" opacity="0.38"/><path d="M356 150 L354 106" stroke="#f3e9d6" stroke-width="5"/><path d="M356 150 L354 106" stroke="url(#hatchInk)" stroke-width="5" opacity="0.5"/>
<path d="M374 150 L380 106" stroke="#2b4480" stroke-width="17"/><path d="M374 150 L380 106" stroke="#f3e9d6" stroke-width="12"/><path d="M374 150 L380 106" stroke="#2b4480" stroke-width="12" opacity="0.38"/><path d="M374 150 L380 106" stroke="#f3e9d6" stroke-width="5"/><path d="M374 150 L380 106" stroke="url(#hatchInk)" stroke-width="5" opacity="0.5"/>
<path d="M256 250 C254 226 246 206 232 194" stroke="#2b4480" stroke-width="35"/><path d="M256 250 C254 226 246 206 232 194" stroke="#f3e9d6" stroke-width="30"/><path d="M256 250 C254 226 246 206 232 194" stroke="#2b4480" stroke-width="30" opacity="0.38"/><path d="M256 250 C254 226 246 206 232 194" stroke="#f3e9d6" stroke-width="23"/><path d="M256 250 C254 226 246 206 232 194" stroke="url(#hatchInk)" stroke-width="23" opacity="0.5"/>
</g>
<path d="M192 246 C150 272 142 346 190 402 C222 440 276 466 326 456 C362 446 386 406 392 350 C398 302 390 266 370 248 C352 232 326 232 306 240 C288 228 256 222 232 228 C212 232 200 240 192 246 Z" fill="#2b4480"/>
<path d="M192 246 C150 272 142 346 190 402 C222 440 276 466 326 456 C362 446 386 406 392 350 C398 302 390 266 370 248 C352 232 326 232 306 240 C288 228 256 222 232 228 C212 232 200 240 192 246 Z" fill="url(#hatchCream)" mask="url(#highlight)"/>
<path d="M192 246 C150 272 142 346 190 402 C222 440 276 466 326 456 C362 446 386 406 392 350 C398 302 390 266 370 248 C352 232 326 232 306 240 C288 228 256 222 232 228 C212 232 200 240 192 246 Z" fill="none" stroke="#2b4480" stroke-width="3"/>
<g fill="none" stroke="#f3e9d6" stroke-linecap="round" clip-path="url(#bodyClip)"><path d="M292.0 262.0 Q281.3 285.1 285.6 307.6" stroke-width="4.5"/><path d="M285.6 307.6 Q283.0 319.6 271.9 332.0" stroke-width="3.0"/><path d="M271.9 332.0 Q265.5 340.2 258.6 344.3" stroke-width="2.0"/><path d="M258.6 344.3 Q252.4 345.9 245.2 347.7" stroke-width="1.3"/><path d="M258.6 344.3 Q254.4 350.7 252.9 355.3" stroke-width="1.3"/><path d="M271.9 332.0 Q272.7 341.8 268.3 351.6" stroke-width="2.0"/><path d="M268.3 351.6 Q266.1 359.0 260.1 364.7" stroke-width="1.3"/><path d="M268.3 351.6 Q269.8 358.4 269.3 365.5" stroke-width="1.3"/><path d="M278.1 321.0 Q281.8 327.4 281.9 333.0" stroke-width="1.5"/><path d="M285.6 307.6 Q291.3 322.3 296.6 340.8" stroke-width="3.0"/><path d="M296.6 340.8 Q297.9 352.7 298.4 364.9" stroke-width="2.0"/><path d="M298.4 364.9 Q297.8 372.3 295.1 380.5" stroke-width="1.3"/><path d="M298.4 364.9 Q303.2 373.0 305.5 381.8" stroke-width="1.3"/><path d="M296.6 340.8 Q307.7 349.0 315.2 360.3" stroke-width="2.0"/><path d="M315.2 360.3 Q319.1 369.2 321.5 376.1" stroke-width="1.3"/><path d="M315.2 360.3 Q325.4 365.9 333.0 368.6" stroke-width="1.3"/><path d="M238.0 256.0 Q232.3 273.0 220.5 292.0" stroke-width="3.5"/><path d="M220.5 292.0 Q210.6 303.7 199.4 310.4" stroke-width="2.3"/><path d="M199.4 310.4 Q190.1 313.6 182.7 316.7" stroke-width="1.5"/><path d="M199.4 310.4 Q197.6 320.0 193.5 329.1" stroke-width="1.5"/><path d="M208.9 302.1 Q209.5 308.2 210.8 314.6" stroke-width="1.2"/><path d="M220.5 292.0 Q223.5 307.3 223.9 322.2" stroke-width="2.3"/><path d="M223.9 322.2 Q218.6 330.6 217.6 341.2" stroke-width="1.5"/><path d="M223.9 322.2 Q226.5 331.6 234.0 337.9" stroke-width="1.5"/><path d="M330.0 256.0 Q339.4 269.8 352.8 281.3" stroke-width="3.2"/><path d="M352.8 281.3 Q354.7 291.8 357.5 304.0" stroke-width="2.1"/><path d="M357.5 304.0 Q353.0 310.8 352.7 318.1" stroke-width="1.4"/><path d="M357.5 304.0 Q363.4 310.0 365.6 315.8" stroke-width="1.4"/><path d="M352.8 281.3 Q362.5 282.8 373.9 288.3" stroke-width="2.1"/><path d="M373.9 288.3 Q381.3 293.5 385.0 299.3" stroke-width="1.4"/><path d="M373.9 288.3 Q380.7 287.3 387.6 287.1" stroke-width="1.4"/></g>
</svg>
